<?xml version="1.0" encoding="utf-8"?>
<!-- Generator: Adobe Illustrator 25.0.0, SVG Export Plug-In . SVG Version: 6.00 Build 0)  -->
<svg version="1.1" id="Camada_1" xmlns="http://www.w3.org/2000/svg" xmlns:xlink="http://www.w3.org/1999/xlink" x="0px" y="0px"
	 viewBox="0 0 87.2 87.2" style="enable-background:new 0 0 87.2 87.2;" xml:space="preserve">
<g>
	<g>
		<g>
			<g>
				<path d="M43.6,87.2C19.56,87.2,0,67.64,0,43.6C0,19.56,19.56,0,43.6,0c24.04,0,43.6,19.56,43.6,43.6
					C87.2,67.64,67.64,87.2,43.6,87.2z M43.6,3C21.21,3,3,21.21,3,43.6c0,22.39,18.21,40.6,40.6,40.6c22.39,0,40.6-18.21,40.6-40.6
					C84.2,21.21,65.99,3,43.6,3z"/>
			</g>
			<path d="M44.99,19.39c-4.14,0-7.49,3.35-7.49,7.49v7.84l-5.44,0.08v7.79l5.44-0.08v25.28h9.32V42.52h7.49l0.83-7.79h-8.32
				c0-1.72,0-3.62,0-5.44c0-1.16,0.94-2.1,2.1-2.1h6.21v-7.79H44.99z"/>
		</g>
		<g>
			<g>
				<path d="M43.6,87.2C19.56,87.2,0,67.64,0,43.6C0,19.56,19.56,0,43.6,0c24.04,0,43.6,19.56,43.6,43.6
					C87.2,67.64,67.64,87.2,43.6,87.2z M43.6,3C21.21,3,3,21.21,3,43.6c0,22.39,18.21,40.6,40.6,40.6c22.39,0,40.6-18.21,40.6-40.6
					C84.2,21.21,65.99,3,43.6,3z"/>
			</g>
			<path d="M44.99,19.39c-4.14,0-7.49,3.35-7.49,7.49v7.84l-5.44,0.08v7.79l5.44-0.08v25.28h9.32V42.52h7.49l0.83-7.79h-8.32
				c0-1.72,0-3.62,0-5.44c0-1.16,0.94-2.1,2.1-2.1h6.21v-7.79H44.99z"/>
		</g>
	</g>
</g>
</svg>
