<?xml version="1.0" encoding="utf-8"?>
<!-- Generator: Adobe Illustrator 25.0.0, SVG Export Plug-In . SVG Version: 6.00 Build 0)  -->
<svg version="1.1" id="Camada_1" xmlns="http://www.w3.org/2000/svg" xmlns:xlink="http://www.w3.org/1999/xlink" x="0px" y="0px"
	 viewBox="0 0 87.2 87.2" style="enable-background:new 0 0 87.2 87.2;" xml:space="preserve">
	<g>
		<g>
			<g>
				<g>
					<path d="M43.6,87.2C19.56,87.2,0,67.64,0,43.6C0,19.56,19.56,0,43.6,0c24.04,0,43.6,19.56,43.6,43.6
						C87.2,67.64,67.64,87.2,43.6,87.2z M43.6,3C21.21,3,3,21.21,3,43.6c0,22.39,18.21,40.6,40.6,40.6c22.39,0,40.6-18.21,40.6-40.6
						C84.2,21.21,65.99,3,43.6,3z"/>
				</g>
				<g>
					<g>
						<path d="M54.43,67.36H32.77c-7.13,0-12.93-5.8-12.93-12.93V32.77c0-7.13,5.8-12.93,12.93-12.93h21.65
							c7.13,0,12.93,5.8,12.93,12.93v21.65C67.36,61.56,61.56,67.36,54.43,67.36z M32.77,22.25c-5.8,0-10.52,4.72-10.52,10.52v21.65
							c0,5.8,4.72,10.52,10.52,10.52h21.65c5.8,0,10.52-4.72,10.52-10.52V32.77c0-5.8-4.72-10.52-10.52-10.52H32.77z"/>
					</g>
					<g>
						<path d="M43.6,58.33c-8.12,0-14.73-6.61-14.73-14.73c0-8.13,6.61-14.73,14.73-14.73c8.13,0,14.73,6.61,14.73,14.73
							C58.33,51.72,51.72,58.33,43.6,58.33z M43.6,31.27c-6.8,0-12.33,5.53-12.33,12.33c0,6.8,5.53,12.33,12.33,12.33
							c6.8,0,12.33-5.53,12.33-12.33C55.93,36.8,50.4,31.27,43.6,31.27z"/>
					</g>
					<path d="M60.44,29.58c0,1.22-0.99,2.22-2.22,2.22C57,31.8,56,30.8,56,29.58c0-1.22,0.99-2.22,2.22-2.22
						C59.45,27.36,60.44,28.35,60.44,29.58z"/>
				</g>
			</g>
			<g>
				<g>
					<path d="M43.6,87.2C19.56,87.2,0,67.64,0,43.6C0,19.56,19.56,0,43.6,0c24.04,0,43.6,19.56,43.6,43.6
						C87.2,67.64,67.64,87.2,43.6,87.2z M43.6,3C21.21,3,3,21.21,3,43.6c0,22.39,18.21,40.6,40.6,40.6c22.39,0,40.6-18.21,40.6-40.6
						C84.2,21.21,65.99,3,43.6,3z"/>
				</g>
				<g>
					<g>
						<path d="M54.43,67.36H32.77c-7.13,0-12.93-5.8-12.93-12.93V32.77c0-7.13,5.8-12.93,12.93-12.93h21.65
							c7.13,0,12.93,5.8,12.93,12.93v21.65C67.36,61.56,61.56,67.36,54.43,67.36z M32.77,22.25c-5.8,0-10.52,4.72-10.52,10.52v21.65
							c0,5.8,4.72,10.52,10.52,10.52h21.65c5.8,0,10.52-4.72,10.52-10.52V32.77c0-5.8-4.72-10.52-10.52-10.52H32.77z"/>
					</g>
					<g>
						<path d="M43.6,58.33c-8.12,0-14.73-6.61-14.73-14.73c0-8.13,6.61-14.73,14.73-14.73c8.13,0,14.73,6.61,14.73,14.73
							C58.33,51.72,51.72,58.33,43.6,58.33z M43.6,31.27c-6.8,0-12.33,5.53-12.33,12.33c0,6.8,5.53,12.33,12.33,12.33
							c6.8,0,12.33-5.53,12.33-12.33C55.93,36.8,50.4,31.27,43.6,31.27z"/>
					</g>
					<path d="M60.44,29.58c0,1.22-0.99,2.22-2.22,2.22C57,31.8,56,30.8,56,29.58c0-1.22,0.99-2.22,2.22-2.22
						C59.45,27.36,60.44,28.35,60.44,29.58z"/>
				</g>
			</g>
		</g>
	</g>
</svg>
