<?xml version="1.0" encoding="utf-8"?>
<!-- Generator: Adobe Illustrator 25.0.0, SVG Export Plug-In . SVG Version: 6.00 Build 0)  -->
<svg version="1.1" id="Camada_1" xmlns="http://www.w3.org/2000/svg" xmlns:xlink="http://www.w3.org/1999/xlink" x="0px" y="0px"
	 viewBox="0 0 87.2 87.2" style="enable-background:new 0 0 87.2 87.2;" xml:space="preserve">
	<g>
		<g>
			<g>
				<g>
					<path d="M43.6,87.2C19.56,87.2,0,67.64,0,43.6C0,19.56,19.56,0,43.6,0s43.6,19.56,43.6,43.6C87.2,67.64,67.64,87.2,43.6,87.2z
						M43.6,3C21.21,3,3,21.21,3,43.6c0,22.39,18.21,40.6,40.6,40.6s40.6-18.21,40.6-40.6C84.2,21.21,65.99,3,43.6,3z"/>
				</g>
				<g>
					<path d="M20.75,68.59l3.99-12.38c-5.86-8.63-5-20.34,2.14-28.09c8.49-9.2,22.88-9.79,32.08-1.3c4.46,4.11,7.05,9.71,7.3,15.77
						c0.25,6.06-1.88,11.85-5.99,16.31c-7.11,7.72-18.71,9.53-27.8,4.42L20.75,68.59z M43.58,23.22c-0.28,0-0.56,0.01-0.84,0.02
						c-5.42,0.22-10.43,2.54-14.1,6.52c-6.51,7.06-7.18,17.8-1.6,25.55l0.36,0.49l-2.7,8.37l7.91-3.56l0.54,0.32
						c8.2,4.91,18.86,3.37,25.34-3.66c3.68-3.99,5.58-9.16,5.36-14.58c-0.22-5.42-2.54-10.43-6.52-14.1
						C53.54,25.11,48.69,23.22,43.58,23.22z"/>
				</g>
				<path d="M41.62,45.54c0.82,0.82,2.48,2.38,3.62,2.66c1.13,0.28,1.97-0.35,2.86-1.11c0.47-0.4,0.67-0.86,1.8-1.06
					c1.17-0.21,4.47,1.98,5.26,2.92c2.4,2.85,0.25,6.04-3,6.31c-4.02,0.34-9.37-3.32-13.15-7.1c-3.78-3.78-7.43-9.13-7.1-13.15
					c0.27-3.25,3.46-5.4,6.31-3c0.94,0.79,3.13,4.09,2.92,5.26c-0.2,1.13-0.67,1.34-1.06,1.8c-0.76,0.89-1.39,1.72-1.11,2.86
					C39.24,43.06,40.8,44.72,41.62,45.54z"/>
			</g>
			<g>
				<g>
					<path d="M43.6,87.2C19.56,87.2,0,67.64,0,43.6C0,19.56,19.56,0,43.6,0s43.6,19.56,43.6,43.6C87.2,67.64,67.64,87.2,43.6,87.2z
						M43.6,3C21.21,3,3,21.21,3,43.6c0,22.39,18.21,40.6,40.6,40.6s40.6-18.21,40.6-40.6C84.2,21.21,65.99,3,43.6,3z"/>
				</g>
				<g>
					<path d="M20.75,68.59l3.99-12.38c-5.86-8.63-5-20.34,2.14-28.09c8.49-9.2,22.88-9.79,32.08-1.3c4.46,4.11,7.05,9.71,7.3,15.77
						c0.25,6.06-1.88,11.85-5.99,16.31c-7.11,7.72-18.71,9.53-27.8,4.42L20.75,68.59z M43.58,23.22c-0.28,0-0.56,0.01-0.84,0.02
						c-5.42,0.22-10.43,2.54-14.1,6.52c-6.51,7.06-7.18,17.8-1.6,25.55l0.36,0.49l-2.7,8.37l7.91-3.56l0.54,0.32
						c8.2,4.91,18.86,3.37,25.34-3.66c3.68-3.99,5.58-9.16,5.36-14.58c-0.22-5.42-2.54-10.43-6.52-14.1
						C53.54,25.11,48.69,23.22,43.58,23.22z"/>
				</g>
				<path d="M41.62,45.54c0.82,0.82,2.48,2.38,3.62,2.66c1.13,0.28,1.97-0.35,2.86-1.11c0.47-0.4,0.67-0.86,1.8-1.06
					c1.17-0.21,4.47,1.98,5.26,2.92c2.4,2.85,0.25,6.04-3,6.31c-4.02,0.34-9.37-3.32-13.15-7.1c-3.78-3.78-7.43-9.13-7.1-13.15
					c0.27-3.25,3.46-5.4,6.31-3c0.94,0.79,3.13,4.09,2.92,5.26c-0.2,1.13-0.67,1.34-1.06,1.8c-0.76,0.89-1.39,1.72-1.11,2.86
					C39.24,43.06,40.8,44.72,41.62,45.54z"/>
			</g>
		</g>
	</g>
</svg>
